<svg width="658" height="305" viewBox="0 0 658 305" fill="none" xmlns="http://www.w3.org/2000/svg">
<path d="M19.1715 18.9504V56.5041H66.1137V47.1157H75.5021V28.3388H66.1137V18.9504H19.1715ZM19.1715 75.281V131.612H0.394657V0.173533H75.5021V9.56196H84.8905V18.9504H94.279V56.5041H84.8905V65.8926H75.5021V75.281H19.1715ZM131.833 131.612V112.835H150.61V18.9504H131.833V0.173533H188.163V18.9504H169.386V112.835H188.163V131.612H131.833ZM244.494 103.446V131.612H225.717V94.0578H235.105V84.6694H244.494V75.281H253.882V56.5041H244.494V47.1157H235.105V37.7273H225.717V0.173533H244.494V28.3388H253.882V37.7273H263.271V47.1157H282.048V37.7273H291.436V28.3388H300.824V0.173533H319.601V37.7273H310.213V47.1157H300.824V56.5041H291.436V75.281H300.824V84.6694H310.213V94.0578H319.601V131.612H300.824V103.446H291.436V94.0578H282.048V84.6694H263.271V94.0578H253.882V103.446H244.494ZM338.378 131.612V0.173533H357.155V112.835H432.262V131.612H338.378ZM469.816 75.281H526.147V47.1157H516.758V37.7273H507.37V28.3388H488.593V37.7273H479.205V47.1157H469.816V75.281ZM469.816 131.612H451.039V37.7273H460.428V28.3388H469.816V18.9504H479.205V9.56196H488.593V0.173533H507.37V9.56196H516.758V18.9504H526.147V28.3388H535.535V37.7273H544.924V131.612H526.147V94.0578H469.816V131.612ZM582.477 18.9504V56.5041H629.42V47.1157H638.808V28.3388H629.42V18.9504H582.477ZM591.866 75.281H582.477V131.612H563.701V0.173533H638.808V9.56196H648.196V18.9504H657.585V56.5041H648.196V65.8926H638.808V75.281H620.031V84.6694H629.42V94.0578H638.808V103.446H648.196V112.835H657.585V131.612H638.808V122.223H629.42V112.835H620.031V103.446H610.643V94.0578H601.254V84.6694H591.866V75.281ZM66.1137 191.95H28.56V201.339H19.1715V276.446H28.56V285.835H66.1137V276.446H75.5021V201.339H66.1137V191.95ZM19.1715 182.562V173.174H75.5021V182.562H84.8905V191.95H94.279V285.835H84.8905V295.223H75.5021V304.612H19.1715V295.223H9.78309V285.835H0.394657V191.95H9.78309V182.562H19.1715ZM225.717 304.612V173.174H244.494V285.835H319.601V304.612H225.717ZM347.767 285.835H338.378V267.058H357.155V276.446H366.543V285.835H385.32V276.446H394.709V191.95H375.932V173.174H432.262V191.95H413.486V285.835H404.097V295.223H394.709V304.612H357.155V295.223H347.767V285.835ZM460.428 285.835H451.039V173.174H469.816V276.446H479.205V285.835H516.758V276.446H526.147V173.174H544.924V285.835H535.535V295.223H526.147V304.612H469.816V295.223H460.428V285.835ZM582.477 191.95V285.835H629.42V276.446H638.808V201.339H629.42V191.95H582.477ZM563.701 304.612V173.174H638.808V182.562H648.196V191.95H657.585V285.835H648.196V295.223H638.808V304.612H563.701Z" fill="#C3C8FF"/>
</svg>
