<svg width="676" height="336" viewBox="0 0 676 336" fill="none" xmlns="http://www.w3.org/2000/svg">
<g clip-path="url(#clip0_2_4)">
<path d="M28.155 48.9504V86.5041H75.0972V77.1157H84.4856V58.3388H75.0972V48.9504H28.155ZM28.155 105.281V161.612H9.37818V30.1735H84.4856V39.562H93.8741V48.9504H103.262V86.5041H93.8741V95.8926H84.4856V105.281H28.155ZM140.816 161.612V142.835H159.593V48.9504H140.816V30.1735H197.147V48.9504H178.37V142.835H197.147V161.612H140.816ZM253.477 133.446V161.612H234.701V124.058H244.089V114.669H253.477V105.281H262.866V86.5041H253.477V77.1157H244.089V67.7273H234.701V30.1735H253.477V58.3388H262.866V67.7273H272.254V77.1157H291.031V67.7273H300.42V58.3388H309.808V30.1735H328.585V67.7273H319.196V77.1157H309.808V86.5041H300.42V105.281H309.808V114.669H319.196V124.058H328.585V161.612H309.808V133.446H300.42V124.058H291.031V114.669H272.254V124.058H262.866V133.446H253.477ZM347.362 161.612V30.1735H366.139V142.835H441.246V161.612H347.362ZM478.8 105.281H535.13V77.1157H525.742V67.7273H516.353V58.3388H497.577V67.7273H488.188V77.1157H478.8V105.281ZM478.8 161.612H460.023V67.7273H469.411V58.3388H478.8V48.9504H488.188V39.562H497.577V30.1735H516.353V39.562H525.742V48.9504H535.13V58.3388H544.519V67.7273H553.907V161.612H535.13V124.058H478.8V161.612ZM591.461 48.9504V86.5041H638.403V77.1157H647.791V58.3388H638.403V48.9504H591.461ZM600.849 105.281H591.461V161.612H572.684V30.1735H647.791V39.562H657.18V48.9504H666.568V86.5041H657.18V95.8926H647.791V105.281H629.015V114.669H638.403V124.058H647.791V133.446H657.18V142.835H666.568V161.612H647.791V152.223H638.403V142.835H629.015V133.446H619.626V124.058H610.238V114.669H600.849V105.281ZM75.0972 221.95H37.5435V231.339H28.155V306.446H37.5435V315.835H75.0972V306.446H84.4856V231.339H75.0972V221.95ZM28.155 212.562V203.174H84.4856V212.562H93.8741V221.95H103.262V315.835H93.8741V325.223H84.4856V334.612H28.155V325.223H18.7666V315.835H9.37818V221.95H18.7666V212.562H28.155ZM234.701 334.612V203.174H253.477V315.835H328.585V334.612H234.701ZM356.75 315.835H347.362V297.058H366.139V306.446H375.527V315.835H394.304V306.446H403.692V221.95H384.915V203.174H441.246V221.95H422.469V315.835H413.081V325.223H403.692V334.612H366.139V325.223H356.75V315.835ZM469.411 315.835H460.023V203.174H478.8V306.446H488.188V315.835H525.742V306.446H535.13V203.174H553.907V315.835H544.519V325.223H535.13V334.612H478.8V325.223H469.411V315.835ZM591.461 221.95V315.835H638.403V306.446H647.791V231.339H638.403V221.95H591.461ZM572.684 334.612V203.174H647.791V212.562H657.18V221.95H666.568V315.835H657.18V325.223H647.791V334.612H572.684Z" fill="#BAFFA7"/>
</g>
<defs>
<clipPath id="clip0_2_4">
<rect width="676" height="336" fill="white"/>
</clipPath>
</defs>
</svg>
